<svg xmlns="http://www.w3.org/2000/svg" xmlns:xlink="http://www.w3.org/1999/xlink" viewBox="0 0 3639.36 506.82"><defs><style>.cls-1,.cls-5{fill:none;}.cls-2{fill:#1d1d1b;}.cls-3{clip-path:url(#clip-path);}.cls-4{fill:#1a1413;}.cls-5{stroke:#1d1d1b;stroke-miterlimit:10;stroke-width:14px;}</style><clipPath id="clip-path" transform="translate(0.01)"><polyline class="cls-1" points="0 2.43 0 508.83 3639.36 508.83 3639.36 2.43"/></clipPath></defs><g id="Camada_2" data-name="Camada 2"><g id="Camada_1-2" data-name="Camada 1"><g id="Camada_1-3" data-name="Camada 1"><path class="cls-2" d="M2675.47,44.78a16.09,16.09,0,0,1,2.11,1.45c1.57,1.26,7.66,5.82,10.86,12.28,2.22,4.48,5,10.48,4.1,15.51a5,5,0,0,1-3.06,3.62,5.12,5.12,0,0,1-4.75-.91c-8-5.55-19.89-3.18-23.67,6.15-1.48,3.64-.9,7.69-.37,10.08a19.45,19.45,0,0,0,4.58,8.31c3.22,3.27,7.67,6.22,17.7,5.48,10.9-.79,17.91-10.09,18.18-10.39,13.68-15,11.51-34.91,4.42-49.06a42.37,42.37,0,0,0-5.94-8.6s-51.68-75.27-159-15.87c-48.93,27.09-73.32,70.24-84,109.09-12.71,46.34-4.57,90-3,97.91,3.19,16.1,19.3,144.72,166.18,141.48,29.15-.64,55.32-16.81,69.54-28.76,10-8.42,22.36-25.92,29.5-43.15a4.66,4.66,0,0,0-2.5-6.1,4.72,4.72,0,0,0-1.78-.36h-24.68a4.69,4.69,0,0,0-4.27,2.81c-4.73,10.86-25,49.47-74.45,49.82-25.73.18-48.93-9.31-70.2-29.34-76.7-72.21-39.88-205.58-2.86-245.45C2576.89,29,2624.89,17.79,2675.47,44.78Z" transform="translate(0.01)"/><path class="cls-2" d="M1468.74,185V333.89a46.47,46.47,0,0,0,10.08,29.25c5.73,7.08,14.38,13.68,27.18,13.79,40.56.33,42-38.16,42-38.16h-5.88s1.93,19.87-18.44,20.28a5.47,5.47,0,0,1-1.07,0c-17.17-2.66-15.67-19.4-15.67-19.4V185" transform="translate(0.01)"/><g class="cls-3"><path class="cls-2" d="M3007.9,375.19h-36.82V184.77h36.82v23.76s16.6-23.76,46.71-23.76c52.57,0,48.33,39.34,48.33,39.34s-3,25.68-24,26.11c-20.35.42-25.86-16.09-25.82-24.56.73-16.07,11.48-18.73,14.65-21.62a1.83,1.83,0,0,0-.19-2.58,1.81,1.81,0,0,0-.88-.42c-5.72-1.24-25.17,2.07-36.86,10.23-18.55,12.92-22,34.65-22,34.65Z" transform="translate(0.01)"/><path class="cls-2" d="M2051.89,67.83h38.72V373.29h-38.72l.15-19.46c5.09-2.88-20.79,19.74-52.64,19.74-31.82.32-89.74-24.23-90.73-93.46,2-57.74,45.45-90.56,90.68-91.21,41.19,1.5,52.54,16.07,52.54,16.07v26.86s-13.56-15.5-52.38-17.13c-41.87-1-53.46,28.55-53.46,28.55l.23,79.4s12.77,25.38,53.12,24.89,52.49-25.2,52.49-25.2V67.83Z" transform="translate(0.01)"/><path class="cls-2" d="M2300.26,282.43a92,92,0,1,1-92-92,92,92,0,0,1,92,92Zm-37.71-46.32s-18.72-19.41-54.48-20.09c-38.23,1-55,19.5-55,19.5v86.93s11.75,26.34,55,26c46.69-1.44,54.19-25.68,54.19-25.68l.27-41.37Z" transform="translate(0.01)"/><path class="cls-2" d="M23.61,452c2.52,10.87,20.68,39.83,55.7,28.43,38.16-12.42,54.82-61.17,61.5-77s39-110.74,53.48-152.58S263.43,84.66,312.53,35.23c9.63-8.81,29.7-32.81,69.06-32.81a57.7,57.7,0,0,1,32.25,12c10,7.91,20.06,20,21.62,42.48a41.93,41.93,0,0,1-.7,10.43c-3.24,15.49-13.91,32.4-34,35.67-.4.06-11.67,3-20.7-3.17-8.31-5.66-10-10.74-10.44-15.3a19.29,19.29,0,0,1,1.58-9.36c1.07-2.2,3.13-5.73,6.55-7.66,8.76-5,19.54.58,22.37,9.91a5.09,5.09,0,0,0,3.15,3.66,5,5,0,0,0,4.65-.93c3.83-3.38,5.38-9.81,6.43-14.7,1.51-7-.42-14.4-.87-16.36a17.74,17.74,0,0,0-.75-2.45c-4.26-10.73-15.07-22.84-32-24.27-14.22-1.2-29.84,6.89-45,22.74C323,58.45,286,131.22,277,155c-8.18,21.8-21.65,63.56-21.65,63.56l-23.75,65.65-22.44,56.45c-30.27,70.76-74.4,117-74.41,117h0S107,495.07,58.27,497.48h0c-33.62-2-51.3-28-51.3-51v-3.91A56.12,56.12,0,0,1,20.5,410a38.91,38.91,0,0,1,20.27-11.38C49.2,397,59.84,397,72.11,406a28.46,28.46,0,0,1,5.08,4.91c6.57,8.43,10.64,21.31,3.57,33.09-.14.23-3.55,7.32-10.66,9.29-6.55,1.81-9.88.45-12.45-1.29a12.92,12.92,0,0,1-4.14-4.9,11.88,11.88,0,0,1-1.09-6.72c1.27-6.68,8.82-9.82,14.87-7.21a3.48,3.48,0,0,0,3.26,0,3.36,3.36,0,0,0,1.55-2.81c-.07-3.44-2.71-7.05-4.77-9.73-3-3.85-7.61-6.06-8.82-6.69a12.46,12.46,0,0,0-1.59-.68,27.27,27.27,0,0,0-26.46,5.89C19.21,429.09,23.61,452,23.61,452Z" transform="translate(0.01)"/><path class="cls-2" d="M480.22,374.91H441.73l.88-135.31s-16.85-25-55.28-26c-39.26.34-55.84,25.91-55.84,25.91l-.17,33.65.14,54.87s28.05,21.44,54.27,21.17c46.22-1.51,56.55-22.72,56.55-22.72v28.95s-25.07,19.45-58.73,19.38c-34.79-.93-65.24-29.71-65.24-29.71s-29.47-30.05-25.11-72.92,29.79-60,29.79-60,28.64-24.68,63.92-24.46c38.71.79,50.87,17.77,54.89,14.09v-17h38.49Z" transform="translate(0.01)"/><path class="cls-2" d="M561.2,492.38H521.71V184.82H561.2v13.72s26.11-12.88,54.22-12.38c33.13,1.51,90.86,23.09,91.87,93.71-2,58.9-41.4,91.68-92.5,93-39.7,0-53.59-15-53.59-15V325.59s10.71,21.16,53.43,21.2,54.1-29.12,54.1-29.12l.2-80.45s-13.27-25.9-54.43-25.4-53.3,19.51-53.3,19.51v261Z" transform="translate(0.01)"/><path class="cls-2" d="M1018,339.77s-1.51,16.74,15.66,19.4a5.71,5.71,0,0,0,1.09.07c20.37-.41,18.45-20.28,18.45-20.28h5.87s-1.41,38.49-42,38.16c-12.8-.11-21.45-6.71-27.17-13.79A46.55,46.55,0,0,1,979.87,334V138.23h-22V111h22V2.43H1018V111h64.58v27.32l-64.6-.14" transform="translate(0.01)"/><path class="cls-2" d="M1339,374.91h-36.81V184.49H1339v23.76s16.6-23.76,46.72-23.76c52.56,0,48.32,39.34,48.32,39.34s-3,25.68-24,26.11c-20.35.42-25.86-16.09-25.82-24.55.73-16.08,11.49-18.74,14.65-21.63a1.83,1.83,0,0,0-1.06-3c-5.72-1.24-25.17,2.08-36.87,10.23-18.55,12.93-22,34.65-22,34.65Z" transform="translate(0.01)"/><path class="cls-2" d="M930.18,374.75H891.7V238.83s-16.86-25-55.28-26c-39.26.33-55.2,25.9-55.2,25.9V273l.1,54.34s25.9,21.52,52.11,21.25c46.23-1.51,58.24-26,58.24-26v33.25s-24.59,18.92-58.25,18.84c-34.79-.93-65.25-29.71-65.25-29.71S738.7,315,743.06,272s29.8-59.94,29.8-59.94,28.64-24.69,63.91-24.47c38.71.79,50.88,17.77,54.9,14.09V184.65h38.48Z" transform="translate(0.01)"/><path class="cls-2" d="M1257.61,374.91h-38.48V238.82s-16.86-25-55.28-26c-39.26.34-55.84,19.48-55.84,19.48l0,94.27s26.72,22.49,52.93,22.22c46.23-1.51,58.24-26,58.24-26V356s-24.59,18.91-58.25,18.84c-34.79-.93-65.25-29.71-65.25-29.71s-29.47-30.05-25.11-72.92,29.8-60,29.8-60,28.64-24.68,63.92-24.46c38.71.79,50.87,17.77,54.89,14.09v-17.1h38.48Z" transform="translate(0.01)"/><path class="cls-2" d="M1750.86,375h-38.49V239.84s-16.85-25-55.27-26c-39.27.34-55.85,25.91-55.85,25.91l.67,33.55.11,53.5s27.52,22.25,53.74,22c42-2.4,56.6-22.08,56.6-22.08v29.41s-24.59,18.9-58.24,18.9c-34.79-.93-65.25-29.71-65.25-29.71s-29.47-30.05-25.11-72.92,29.8-59.94,29.8-59.94,28.64-24.69,63.91-24.47c38.71.79,50.88,17.77,54.89,14.09V185h38.49Z" transform="translate(0.01)"/><path class="cls-4" d="M3332.89,222.76h0c0-.32-2.27-18.92-30.32-19.69-20.14-.13-32.35,19-33,20a.14.14,0,0,0,0,.09l.31,150.22a.18.18,0,0,1-.18.18h-35.49a.18.18,0,0,1-.18-.18l-1-150a.08.08,0,0,0,0-.07c-.41-.91-9.45-20.17-32.52-20.64-19-.4-28.87,13-34.38,20.54v.07c-1.46,7.87.16,144.58.22,150.13a.17.17,0,0,1-.17.18h-38.27a.18.18,0,0,1-.18-.18V185.58a.18.18,0,0,1,.17-.17h38.26a.18.18,0,0,1,.18.16h0v23.25a.16.16,0,0,0,.15.19.16.16,0,0,0,.15-.06c1.48-1.57,8-8.38,11.45-10.25,5.76-3.12,15.24-13.47,49.33-13.47,25.13,0,39.2,20.49,40.56,22.56a.17.17,0,0,0,.24,0s0,0,0,0c2.12-1.93,26.69-23.6,53.62-22.81,30.86-.7,43.76,27.5,46.9,35.85a13.36,13.36,0,0,1,.84,4.32l.31,13.63v98s-.63,16.72,16.52,19.39a6.08,6.08,0,0,0,1.13.08c19.2-.41,18.57-18.12,18.44-20.11a.18.18,0,0,1,.16-.18h5.52a.18.18,0,0,1,.18.18h0c-.17,2.87-3.05,38.29-42,38-12.09-.1-20.48-6-26.19-12.62A46.61,46.61,0,0,1,3332.61,331v-92.2Z" transform="translate(0.01)"/><path class="cls-2" d="M3624.61,281.87a92.82,92.82,0,1,1-92.8-92.84,92.82,92.82,0,0,1,92.8,92.84Zm-38.4-45.57s-18.52-21-54.58-21.74c-38.55,1-55.23,22-55.23,22V324.8S3488,349,3531.61,348.73c47.09-1.45,54.3-23.93,54.3-23.93Z" transform="translate(0.01)"/><path class="cls-2" d="M2937.74,373h-38V239.3S2883,214.61,2845,213.62c-38.82.33-55.22,25.61-55.22,25.61l.67,33.21.1,53.6s25.6,21.28,51.52,21c47-.29,57.58-21.17,57.58-21.17V354.3s-24.31,18.71-57.59,18.64c-34.4-.92-64.51-29.38-64.51-29.38s-29.14-29.71-24.83-72.1,29.46-59.27,29.46-59.27,28.32-24.4,63.2-24.18c38.27.77,50.3,17.57,54.27,13.93V185h38Z" transform="translate(0.01)"/><line class="cls-5" y1="499.82" x2="3639.36" y2="499.82"/></g></g></g></g></svg>